<svg width="126" height="29" viewBox="0 0 126 29" fill="none" xmlns="http://www.w3.org/2000/svg">
<rect width="126" height="29" rx="14.5" fill="#9191DC"/>
<path d="M28.5762 6H30.3926V18.9492L30.2363 21H28.5762V6ZM37.5312 15.6289V15.834C37.5312 16.6022 37.4401 17.3151 37.2578 17.9727C37.0755 18.6237 36.8086 19.1901 36.457 19.6719C36.1055 20.1536 35.6758 20.528 35.168 20.7949C34.6602 21.0618 34.0775 21.1953 33.4199 21.1953C32.7493 21.1953 32.1602 21.0814 31.6523 20.8535C31.151 20.6191 30.7279 20.2839 30.3828 19.8477C30.0378 19.4115 29.7611 18.8841 29.5527 18.2656C29.3509 17.6471 29.2109 16.9505 29.1328 16.1758V15.2773C29.2109 14.4961 29.3509 13.7962 29.5527 13.1777C29.7611 12.5592 30.0378 12.0319 30.3828 11.5957C30.7279 11.153 31.151 10.8177 31.6523 10.5898C32.1536 10.3555 32.7363 10.2383 33.4004 10.2383C34.0645 10.2383 34.6536 10.3685 35.168 10.6289C35.6823 10.8828 36.112 11.2474 36.457 11.7227C36.8086 12.1979 37.0755 12.7676 37.2578 13.4316C37.4401 14.0892 37.5312 14.8216 37.5312 15.6289ZM35.7148 15.834V15.6289C35.7148 15.1016 35.666 14.6068 35.5684 14.1445C35.4707 13.6758 35.3145 13.2656 35.0996 12.9141C34.8848 12.556 34.6016 12.276 34.25 12.0742C33.8984 11.8659 33.4655 11.7617 32.9512 11.7617C32.4954 11.7617 32.0983 11.8398 31.7598 11.9961C31.4277 12.1523 31.1445 12.3639 30.9102 12.6309C30.6758 12.8913 30.4837 13.1908 30.334 13.5293C30.1908 13.8613 30.0833 14.2064 30.0117 14.5645V16.918C30.1159 17.3737 30.2852 17.8132 30.5195 18.2363C30.7604 18.653 31.0794 18.9948 31.4766 19.2617C31.8802 19.5286 32.3783 19.6621 32.9707 19.6621C33.459 19.6621 33.8757 19.5645 34.2207 19.3691C34.5723 19.1673 34.8555 18.8906 35.0703 18.5391C35.2917 18.1875 35.4544 17.7806 35.5586 17.3184C35.6628 16.8561 35.7148 16.3613 35.7148 15.834ZM46.2812 18.5586V10.4336H48.0977V21H46.3691L46.2812 18.5586ZM46.623 16.332L47.375 16.3125C47.375 17.0156 47.3001 17.6667 47.1504 18.2656C47.0072 18.8581 46.7728 19.3724 46.4473 19.8086C46.1217 20.2448 45.6953 20.5866 45.168 20.834C44.6406 21.0749 43.9993 21.1953 43.2441 21.1953C42.7298 21.1953 42.2578 21.1204 41.8281 20.9707C41.4049 20.821 41.0404 20.5898 40.7344 20.2773C40.4284 19.9648 40.1908 19.5579 40.0215 19.0566C39.8587 18.5553 39.7773 17.9531 39.7773 17.25V10.4336H41.584V17.2695C41.584 17.7448 41.6361 18.1387 41.7402 18.4512C41.8509 18.7572 41.9974 19.0013 42.1797 19.1836C42.3685 19.3594 42.5768 19.4831 42.8047 19.5547C43.0391 19.6263 43.2799 19.6621 43.5273 19.6621C44.2956 19.6621 44.9043 19.5156 45.3535 19.2227C45.8027 18.9232 46.125 18.5228 46.3203 18.0215C46.5221 17.5137 46.623 16.9505 46.623 16.332ZM53.8203 19.9062L56.7598 10.4336H58.6934L54.4551 22.6309C54.3574 22.8913 54.2272 23.1712 54.0645 23.4707C53.9082 23.7767 53.7064 24.0664 53.459 24.3398C53.2116 24.6133 52.9121 24.8346 52.5605 25.0039C52.2155 25.1797 51.8021 25.2676 51.3203 25.2676C51.1771 25.2676 50.9948 25.248 50.7734 25.209C50.5521 25.1699 50.3958 25.1374 50.3047 25.1113L50.2949 23.6465C50.347 23.653 50.4284 23.6595 50.5391 23.666C50.6562 23.679 50.7376 23.6855 50.7832 23.6855C51.1934 23.6855 51.5417 23.6302 51.8281 23.5195C52.1146 23.4154 52.3555 23.2363 52.5508 22.9824C52.7526 22.735 52.9251 22.3932 53.0684 21.957L53.8203 19.9062ZM51.6621 10.4336L54.4062 18.6367L54.875 20.541L53.5762 21.2051L49.6895 10.4336H51.6621ZM67.0918 12.6895V21H65.2852V10.4336H66.9941L67.0918 12.6895ZM66.6621 15.3164L65.9102 15.2871C65.9167 14.5645 66.0241 13.8971 66.2324 13.2852C66.4408 12.6667 66.7337 12.1296 67.1113 11.6738C67.4889 11.2181 67.9382 10.8665 68.459 10.6191C68.9863 10.3652 69.569 10.2383 70.207 10.2383C70.7279 10.2383 71.1966 10.3099 71.6133 10.4531C72.0299 10.5898 72.3848 10.8112 72.6777 11.1172C72.9772 11.4232 73.2051 11.8203 73.3613 12.3086C73.5176 12.7904 73.5957 13.3796 73.5957 14.0762V21H71.7793V14.0566C71.7793 13.5033 71.6979 13.0605 71.5352 12.7285C71.3724 12.39 71.1348 12.1458 70.8223 11.9961C70.5098 11.8398 70.1257 11.7617 69.6699 11.7617C69.2207 11.7617 68.8105 11.8561 68.4395 12.0449C68.0749 12.2337 67.7591 12.4941 67.4922 12.8262C67.2318 13.1582 67.0267 13.5391 66.877 13.9688C66.7337 14.3919 66.6621 14.8411 66.6621 15.3164ZM79.0352 21H77.2285V9.32031C77.2285 8.55859 77.3652 7.91732 77.6387 7.39648C77.9186 6.86914 78.319 6.47201 78.8398 6.20508C79.3607 5.93164 79.9792 5.79492 80.6953 5.79492C80.9036 5.79492 81.112 5.80794 81.3203 5.83398C81.5352 5.86003 81.7435 5.89909 81.9453 5.95117L81.8477 7.42578C81.7109 7.39323 81.5547 7.37044 81.3789 7.35742C81.2096 7.3444 81.0404 7.33789 80.8711 7.33789C80.487 7.33789 80.1549 7.41602 79.875 7.57227C79.6016 7.72201 79.3932 7.94336 79.25 8.23633C79.1068 8.5293 79.0352 8.89062 79.0352 9.32031V21ZM81.2812 10.4336V11.8203H75.5586V10.4336H81.2812ZM87.7168 10.4336V11.8203H82.0039V10.4336H87.7168ZM83.9375 7.86523H85.7441V18.3828C85.7441 18.7409 85.7995 19.0111 85.9102 19.1934C86.0208 19.3757 86.1641 19.4961 86.3398 19.5547C86.5156 19.6133 86.7044 19.6426 86.9062 19.6426C87.056 19.6426 87.2122 19.6296 87.375 19.6035C87.5443 19.571 87.6712 19.5449 87.7559 19.5254L87.7656 21C87.6224 21.0456 87.4336 21.0879 87.1992 21.127C86.9714 21.1725 86.6947 21.1953 86.3691 21.1953C85.9264 21.1953 85.5195 21.1074 85.1484 20.9316C84.7773 20.7559 84.4811 20.4629 84.2598 20.0527C84.0449 19.6361 83.9375 19.0762 83.9375 18.373V7.86523ZM95.9883 18.1973C95.9883 17.9368 95.9297 17.696 95.8125 17.4746C95.7018 17.2467 95.4707 17.0417 95.1191 16.8594C94.7741 16.6706 94.2533 16.5078 93.5566 16.3711C92.9707 16.2474 92.4401 16.1009 91.9648 15.9316C91.4961 15.7624 91.0957 15.5573 90.7637 15.3164C90.4382 15.0755 90.1875 14.7923 90.0117 14.4668C89.8359 14.1413 89.748 13.7604 89.748 13.3242C89.748 12.9076 89.8392 12.5137 90.0215 12.1426C90.2103 11.7715 90.474 11.4427 90.8125 11.1562C91.1576 10.8698 91.571 10.6452 92.0527 10.4824C92.5345 10.3197 93.0716 10.2383 93.6641 10.2383C94.5104 10.2383 95.2331 10.388 95.832 10.6875C96.431 10.987 96.89 11.3874 97.209 11.8887C97.528 12.3835 97.6875 12.9336 97.6875 13.5391H95.8809C95.8809 13.2461 95.793 12.9629 95.6172 12.6895C95.4479 12.4095 95.1973 12.1784 94.8652 11.9961C94.5397 11.8138 94.1393 11.7227 93.6641 11.7227C93.1628 11.7227 92.7559 11.8008 92.4434 11.957C92.1374 12.1068 91.9128 12.2988 91.7695 12.5332C91.6328 12.7676 91.5645 13.015 91.5645 13.2754C91.5645 13.4707 91.597 13.6465 91.6621 13.8027C91.7337 13.9525 91.8574 14.0924 92.0332 14.2227C92.209 14.3464 92.4564 14.4635 92.7754 14.5742C93.0944 14.6849 93.5013 14.7956 93.9961 14.9062C94.862 15.1016 95.5749 15.3359 96.1348 15.6094C96.6947 15.8828 97.1113 16.2181 97.3848 16.6152C97.6582 17.0124 97.7949 17.4941 97.7949 18.0605C97.7949 18.5228 97.6973 18.946 97.502 19.3301C97.3132 19.7142 97.0365 20.0462 96.6719 20.3262C96.3138 20.5996 95.8841 20.8145 95.3828 20.9707C94.888 21.1204 94.3314 21.1953 93.7129 21.1953C92.7819 21.1953 91.9941 21.0293 91.3496 20.6973C90.7051 20.3652 90.2168 19.9355 89.8848 19.4082C89.5527 18.8809 89.3867 18.3242 89.3867 17.7383H91.2031C91.2292 18.2331 91.3724 18.627 91.6328 18.9199C91.8932 19.2064 92.2122 19.4115 92.5898 19.5352C92.9674 19.6523 93.3418 19.7109 93.7129 19.7109C94.2077 19.7109 94.6211 19.6458 94.9531 19.5156C95.2917 19.3854 95.5488 19.2064 95.7246 18.9785C95.9004 18.7507 95.9883 18.4902 95.9883 18.1973Z" fill="white"/>
</svg>
