<svg width="303" height="48" viewBox="0 0 303 48" fill="none" xmlns="http://www.w3.org/2000/svg">
<rect width="303" height="48" rx="24" fill="#9191DC"/>
<path d="M45.3 31V28.58H48.88C49.7867 28.58 50.58 28.3933 51.26 28.02C51.94 27.6333 52.4667 27.0933 52.84 26.4C53.2267 25.7067 53.42 24.8867 53.42 23.94C53.42 23.02 53.2267 22.22 52.84 21.54C52.4533 20.8467 51.92 20.3133 51.24 19.94C50.56 19.5533 49.7733 19.36 48.88 19.36H45.24V16.94H48.92C49.96 16.94 50.92 17.1133 51.8 17.46C52.6933 17.8067 53.4667 18.3 54.12 18.94C54.7867 19.5667 55.3 20.3067 55.66 21.16C56.0333 22.0133 56.22 22.9467 56.22 23.96C56.22 24.9733 56.0333 25.9133 55.66 26.78C55.3 27.6333 54.7933 28.38 54.14 29.02C53.4867 29.6467 52.7133 30.1333 51.82 30.48C50.94 30.8267 49.9867 31 48.96 31H45.3ZM43.44 31V16.94H46.16V31H43.44ZM66.9614 31.22C65.9347 31.22 64.9747 31.0333 64.0814 30.66C63.2014 30.2867 62.4281 29.7733 61.7614 29.12C61.1081 28.4533 60.5947 27.68 60.2214 26.8C59.8481 25.9067 59.6614 24.9533 59.6614 23.94C59.6614 22.9267 59.8414 21.9867 60.2014 21.12C60.5747 20.24 61.0881 19.4733 61.7414 18.82C62.4081 18.1533 63.1814 17.64 64.0614 17.28C64.9414 16.9067 65.8947 16.72 66.9214 16.72C67.9614 16.72 68.9214 16.9067 69.8014 17.28C70.6814 17.64 71.4481 18.1533 72.1014 18.82C72.7681 19.4733 73.2881 20.24 73.6614 21.12C74.0347 22 74.2214 22.9467 74.2214 23.96C74.2214 24.9733 74.0347 25.92 73.6614 26.8C73.2881 27.68 72.7681 28.4533 72.1014 29.12C71.4481 29.7733 70.6814 30.2867 69.8014 30.66C68.9347 31.0333 67.9881 31.22 66.9614 31.22ZM66.9214 28.68C67.8281 28.68 68.6147 28.48 69.2814 28.08C69.9481 27.68 70.4681 27.1267 70.8414 26.42C71.2281 25.7133 71.4214 24.8867 71.4214 23.94C71.4214 23.2467 71.3147 22.6133 71.1014 22.04C70.8881 21.4667 70.5814 20.9733 70.1814 20.56C69.7814 20.1333 69.3081 19.8067 68.7614 19.58C68.2147 19.3533 67.6014 19.24 66.9214 19.24C66.0414 19.24 65.2614 19.44 64.5814 19.84C63.9147 20.2267 63.3881 20.7733 63.0014 21.48C62.6281 22.1867 62.4414 23.0067 62.4414 23.94C62.4414 24.6467 62.5481 25.2933 62.7614 25.88C62.9881 26.4667 63.2947 26.9667 63.6814 27.38C64.0814 27.7933 64.5547 28.1133 65.1014 28.34C65.6614 28.5667 66.2681 28.68 66.9214 28.68ZM81.3711 31L76.8111 16.94H79.4911L82.8711 27.76H81.9711L85.2911 16.94H87.3111L90.6311 27.76H89.7111L93.1111 16.94H95.7911L91.2111 31H89.1911L85.8511 20.2H86.7311L83.4111 31H81.3711ZM99.6548 31V16.94H101.555L102.375 19.66V31H99.6548ZM109.375 31L101.035 20.2L101.555 16.94L109.895 27.74L109.375 31ZM109.375 31L108.595 28.36V16.94H111.335V31H109.375ZM116.186 31V16.94H118.906V31H116.186ZM118.186 31V28.58H125.346V31H118.186ZM134.942 31.22C133.915 31.22 132.955 31.0333 132.062 30.66C131.182 30.2867 130.409 29.7733 129.742 29.12C129.089 28.4533 128.575 27.68 128.202 26.8C127.829 25.9067 127.642 24.9533 127.642 23.94C127.642 22.9267 127.822 21.9867 128.182 21.12C128.555 20.24 129.069 19.4733 129.722 18.82C130.389 18.1533 131.162 17.64 132.042 17.28C132.922 16.9067 133.875 16.72 134.902 16.72C135.942 16.72 136.902 16.9067 137.782 17.28C138.662 17.64 139.429 18.1533 140.082 18.82C140.749 19.4733 141.269 20.24 141.642 21.12C142.015 22 142.202 22.9467 142.202 23.96C142.202 24.9733 142.015 25.92 141.642 26.8C141.269 27.68 140.749 28.4533 140.082 29.12C139.429 29.7733 138.662 30.2867 137.782 30.66C136.915 31.0333 135.969 31.22 134.942 31.22ZM134.902 28.68C135.809 28.68 136.595 28.48 137.262 28.08C137.929 27.68 138.449 27.1267 138.822 26.42C139.209 25.7133 139.402 24.8867 139.402 23.94C139.402 23.2467 139.295 22.6133 139.082 22.04C138.869 21.4667 138.562 20.9733 138.162 20.56C137.762 20.1333 137.289 19.8067 136.742 19.58C136.195 19.3533 135.582 19.24 134.902 19.24C134.022 19.24 133.242 19.44 132.562 19.84C131.895 20.2267 131.369 20.7733 130.982 21.48C130.609 22.1867 130.422 23.0067 130.422 23.94C130.422 24.6467 130.529 25.2933 130.742 25.88C130.969 26.4667 131.275 26.9667 131.662 27.38C132.062 27.7933 132.535 28.1133 133.082 28.34C133.642 28.5667 134.249 28.68 134.902 28.68ZM144.361 31L150.021 16.94H152.241L157.881 31H154.981L150.621 19.46H151.621L147.201 31H144.361ZM147.361 28.38V26.1H154.921V28.38H147.361ZM163.402 31V28.58H166.982C167.888 28.58 168.682 28.3933 169.362 28.02C170.042 27.6333 170.568 27.0933 170.942 26.4C171.328 25.7067 171.522 24.8867 171.522 23.94C171.522 23.02 171.328 22.22 170.942 21.54C170.555 20.8467 170.022 20.3133 169.342 19.94C168.662 19.5533 167.875 19.36 166.982 19.36H163.342V16.94H167.022C168.062 16.94 169.022 17.1133 169.902 17.46C170.795 17.8067 171.568 18.3 172.222 18.94C172.888 19.5667 173.402 20.3067 173.762 21.16C174.135 22.0133 174.322 22.9467 174.322 23.96C174.322 24.9733 174.135 25.9133 173.762 26.78C173.402 27.6333 172.895 28.38 172.242 29.02C171.588 29.6467 170.815 30.1333 169.922 30.48C169.042 30.8267 168.088 31 167.062 31H163.402ZM161.542 31V16.94H164.262V31H161.542ZM190.969 31.22C189.943 31.22 188.983 31.0333 188.089 30.66C187.209 30.2867 186.436 29.7733 185.769 29.12C185.116 28.4533 184.603 27.68 184.229 26.8C183.856 25.9067 183.669 24.9533 183.669 23.94C183.669 22.9267 183.849 21.9867 184.209 21.12C184.583 20.24 185.096 19.4733 185.749 18.82C186.416 18.1533 187.189 17.64 188.069 17.28C188.949 16.9067 189.903 16.72 190.929 16.72C191.969 16.72 192.929 16.9067 193.809 17.28C194.689 17.64 195.456 18.1533 196.109 18.82C196.776 19.4733 197.296 20.24 197.669 21.12C198.043 22 198.229 22.9467 198.229 23.96C198.229 24.9733 198.043 25.92 197.669 26.8C197.296 27.68 196.776 28.4533 196.109 29.12C195.456 29.7733 194.689 30.2867 193.809 30.66C192.943 31.0333 191.996 31.22 190.969 31.22ZM190.929 28.68C191.836 28.68 192.623 28.48 193.289 28.08C193.956 27.68 194.476 27.1267 194.849 26.42C195.236 25.7133 195.429 24.8867 195.429 23.94C195.429 23.2467 195.323 22.6133 195.109 22.04C194.896 21.4667 194.589 20.9733 194.189 20.56C193.789 20.1333 193.316 19.8067 192.769 19.58C192.223 19.3533 191.609 19.24 190.929 19.24C190.049 19.24 189.269 19.44 188.589 19.84C187.923 20.2267 187.396 20.7733 187.009 21.48C186.636 22.1867 186.449 23.0067 186.449 23.94C186.449 24.6467 186.556 25.2933 186.769 25.88C186.996 26.4667 187.303 26.9667 187.689 27.38C188.089 27.7933 188.563 28.1133 189.109 28.34C189.669 28.5667 190.276 28.68 190.929 28.68ZM202.385 31V16.94H204.285L205.105 19.66V31H202.385ZM212.105 31L203.765 20.2L204.285 16.94L212.625 27.74L212.105 31ZM212.105 31L211.325 28.36V16.94H214.065V31H212.105ZM224.823 31V16.94H227.543V31H224.823ZM239.008 31.22C237.982 31.22 237.022 31.0333 236.128 30.66C235.248 30.2867 234.475 29.7733 233.808 29.12C233.155 28.4533 232.642 27.68 232.268 26.8C231.895 25.9067 231.708 24.9533 231.708 23.94C231.708 22.9267 231.888 21.9867 232.248 21.12C232.622 20.24 233.135 19.4733 233.788 18.82C234.455 18.1533 235.228 17.64 236.108 17.28C236.988 16.9067 237.942 16.72 238.968 16.72C240.008 16.72 240.968 16.9067 241.848 17.28C242.728 17.64 243.495 18.1533 244.148 18.82C244.815 19.4733 245.335 20.24 245.708 21.12C246.082 22 246.268 22.9467 246.268 23.96C246.268 24.9733 246.082 25.92 245.708 26.8C245.335 27.68 244.815 28.4533 244.148 29.12C243.495 29.7733 242.728 30.2867 241.848 30.66C240.982 31.0333 240.035 31.22 239.008 31.22ZM238.968 28.68C239.875 28.68 240.662 28.48 241.328 28.08C241.995 27.68 242.515 27.1267 242.888 26.42C243.275 25.7133 243.468 24.8867 243.468 23.94C243.468 23.2467 243.362 22.6133 243.148 22.04C242.935 21.4667 242.628 20.9733 242.228 20.56C241.828 20.1333 241.355 19.8067 240.808 19.58C240.262 19.3533 239.648 19.24 238.968 19.24C238.088 19.24 237.308 19.44 236.628 19.84C235.962 20.2267 235.435 20.7733 235.048 21.48C234.675 22.1867 234.488 23.0067 234.488 23.94C234.488 24.6467 234.595 25.2933 234.808 25.88C235.035 26.4667 235.342 26.9667 235.728 27.38C236.128 27.7933 236.602 28.1133 237.148 28.34C237.708 28.5667 238.315 28.68 238.968 28.68ZM254.153 31.2C253.019 31.2 252.046 31.0067 251.233 30.62C250.433 30.2333 249.706 29.6533 249.053 28.88L250.853 27.08C251.266 27.6267 251.746 28.0533 252.293 28.36C252.839 28.6533 253.506 28.8 254.293 28.8C254.999 28.8 255.559 28.66 255.973 28.38C256.399 28.1 256.613 27.7133 256.613 27.22C256.613 26.7933 256.493 26.4467 256.253 26.18C256.013 25.9133 255.693 25.6867 255.293 25.5C254.906 25.3133 254.473 25.1467 253.993 25C253.526 24.84 253.053 24.66 252.573 24.46C252.106 24.26 251.673 24.0133 251.273 23.72C250.886 23.4133 250.573 23.0267 250.333 22.56C250.093 22.08 249.973 21.48 249.973 20.76C249.973 19.9067 250.179 19.18 250.593 18.58C251.006 17.98 251.573 17.52 252.293 17.2C253.013 16.88 253.826 16.72 254.733 16.72C255.693 16.72 256.559 16.9 257.333 17.26C258.106 17.62 258.739 18.0867 259.233 18.66L257.433 20.46C257.019 20.0067 256.593 19.6733 256.153 19.46C255.726 19.2467 255.239 19.14 254.693 19.14C254.066 19.14 253.573 19.26 253.213 19.5C252.853 19.74 252.673 20.0867 252.673 20.54C252.673 20.9267 252.793 21.24 253.033 21.48C253.273 21.72 253.586 21.9267 253.973 22.1C254.373 22.2733 254.806 22.44 255.273 22.6C255.753 22.76 256.226 22.94 256.693 23.14C257.173 23.34 257.606 23.6 257.993 23.92C258.393 24.24 258.713 24.6533 258.953 25.16C259.193 25.6533 259.313 26.2667 259.313 27C259.313 28.3067 258.853 29.3333 257.933 30.08C257.013 30.8267 255.753 31.2 254.153 31.2Z" fill="white"/>
</svg>
