<svg width="1045" height="356" viewBox="0 0 1045 356" fill="none" xmlns="http://www.w3.org/2000/svg">
<rect width="1045" height="356" rx="30" fill="url(#paint0_linear_220_2)"/>
<path d="M418.685 52L424.345 37.94H426.565L432.205 52H429.305L424.945 40.46H425.945L421.525 52H418.685ZM421.685 49.38V47.1H429.245V49.38H421.685ZM437.866 46.12V44H441.126C441.792 44 442.306 43.8333 442.666 43.5C443.039 43.1533 443.226 42.68 443.226 42.08C443.226 41.5333 443.039 41.08 442.666 40.72C442.306 40.3467 441.792 40.16 441.126 40.16H437.866V37.94H441.366C442.272 37.94 443.066 38.12 443.746 38.48C444.439 38.8267 444.972 39.3067 445.346 39.92C445.732 40.5333 445.926 41.24 445.926 42.04C445.926 42.8667 445.732 43.5867 445.346 44.2C444.972 44.8 444.439 45.2733 443.746 45.62C443.052 45.9533 442.246 46.12 441.326 46.12H437.866ZM435.866 52V37.94H438.586V52H435.866ZM443.546 52L438.906 45.92L441.406 45.14L446.846 52H443.546ZM450.385 52V37.94H453.105V52H450.385ZM452.385 52V49.6H460.165V52H452.385ZM452.385 45.98V43.66H459.465V45.98H452.385ZM452.385 40.34V37.94H460.065V40.34H452.385ZM474.116 46.58L468.676 37.94H471.816L476.036 44.86H474.236L478.456 37.94H481.556L476.056 46.58H474.116ZM473.756 52V45.12H476.496V52H473.756ZM490.797 52.22C489.771 52.22 488.811 52.0333 487.917 51.66C487.037 51.2867 486.264 50.7733 485.597 50.12C484.944 49.4533 484.431 48.68 484.057 47.8C483.684 46.9067 483.497 45.9533 483.497 44.94C483.497 43.9267 483.677 42.9867 484.037 42.12C484.411 41.24 484.924 40.4733 485.577 39.82C486.244 39.1533 487.017 38.64 487.897 38.28C488.777 37.9067 489.731 37.72 490.757 37.72C491.797 37.72 492.757 37.9067 493.637 38.28C494.517 38.64 495.284 39.1533 495.937 39.82C496.604 40.4733 497.124 41.24 497.497 42.12C497.871 43 498.057 43.9467 498.057 44.96C498.057 45.9733 497.871 46.92 497.497 47.8C497.124 48.68 496.604 49.4533 495.937 50.12C495.284 50.7733 494.517 51.2867 493.637 51.66C492.771 52.0333 491.824 52.22 490.797 52.22ZM490.757 49.68C491.664 49.68 492.451 49.48 493.117 49.08C493.784 48.68 494.304 48.1267 494.677 47.42C495.064 46.7133 495.257 45.8867 495.257 44.94C495.257 44.2467 495.151 43.6133 494.937 43.04C494.724 42.4667 494.417 41.9733 494.017 41.56C493.617 41.1333 493.144 40.8067 492.597 40.58C492.051 40.3533 491.437 40.24 490.757 40.24C489.877 40.24 489.097 40.44 488.417 40.84C487.751 41.2267 487.224 41.7733 486.837 42.48C486.464 43.1867 486.277 44.0067 486.277 44.94C486.277 45.6467 486.384 46.2933 486.597 46.88C486.824 47.4667 487.131 47.9667 487.517 48.38C487.917 48.7933 488.391 49.1133 488.937 49.34C489.497 49.5667 490.104 49.68 490.757 49.68ZM507.753 52.2C506.647 52.2 505.66 51.96 504.793 51.48C503.94 50.9867 503.267 50.3133 502.773 49.46C502.28 48.6067 502.033 47.64 502.033 46.56V37.94H504.753V46.64C504.753 47.2667 504.88 47.8067 505.133 48.26C505.4 48.7133 505.76 49.0667 506.213 49.32C506.68 49.56 507.193 49.68 507.753 49.68C508.327 49.68 508.833 49.56 509.273 49.32C509.713 49.0667 510.06 48.7133 510.313 48.26C510.58 47.8067 510.713 47.2733 510.713 46.66V37.94H513.453V46.58C513.453 47.66 513.207 48.6267 512.713 49.48C512.22 50.32 511.547 50.9867 510.693 51.48C509.853 51.96 508.873 52.2 507.753 52.2ZM526.045 46.12V44H529.305C529.972 44 530.485 43.8333 530.845 43.5C531.219 43.1533 531.405 42.68 531.405 42.08C531.405 41.5333 531.219 41.08 530.845 40.72C530.485 40.3467 529.972 40.16 529.305 40.16H526.045V37.94H529.545C530.452 37.94 531.245 38.12 531.925 38.48C532.619 38.8267 533.152 39.3067 533.525 39.92C533.912 40.5333 534.105 41.24 534.105 42.04C534.105 42.8667 533.912 43.5867 533.525 44.2C533.152 44.8 532.619 45.2733 531.925 45.62C531.232 45.9533 530.425 46.12 529.505 46.12H526.045ZM524.045 52V37.94H526.765V52H524.045ZM531.725 52L527.085 45.92L529.585 45.14L535.025 52H531.725ZM538.565 52V37.94H541.285V52H538.565ZM540.565 52V49.6H548.345V52H540.565ZM540.565 45.98V43.66H547.645V45.98H540.565ZM540.565 40.34V37.94H548.245V40.34H540.565ZM551.556 52L557.216 37.94H559.436L565.076 52H562.176L557.816 40.46H558.816L554.396 52H551.556ZM554.556 49.38V47.1H562.116V49.38H554.556ZM570.597 52V49.58H574.177C575.084 49.58 575.877 49.3933 576.557 49.02C577.237 48.6333 577.764 48.0933 578.137 47.4C578.524 46.7067 578.717 45.8867 578.717 44.94C578.717 44.02 578.524 43.22 578.137 42.54C577.75 41.8467 577.217 41.3133 576.537 40.94C575.857 40.5533 575.07 40.36 574.177 40.36H570.537V37.94H574.217C575.257 37.94 576.217 38.1133 577.097 38.46C577.99 38.8067 578.764 39.3 579.417 39.94C580.084 40.5667 580.597 41.3067 580.957 42.16C581.33 43.0133 581.517 43.9467 581.517 44.96C581.517 45.9733 581.33 46.9133 580.957 47.78C580.597 48.6333 580.09 49.38 579.437 50.02C578.784 50.6467 578.01 51.1333 577.117 51.48C576.237 51.8267 575.284 52 574.257 52H570.597ZM568.737 52V37.94H571.457V52H568.737ZM590.038 46.58L584.598 37.94H587.738L591.958 44.86H590.158L594.378 37.94H597.478L591.978 46.58H590.038ZM589.678 52V45.12H592.418V52H589.678ZM603.796 47.12L603.716 43.28H604.416C604.803 43.28 605.136 43.2133 605.416 43.08C605.71 42.9333 605.936 42.7267 606.096 42.46C606.256 42.1933 606.336 41.8867 606.336 41.54C606.336 41.1933 606.256 40.8933 606.096 40.64C605.95 40.3867 605.736 40.1933 605.456 40.06C605.176 39.9133 604.843 39.84 604.456 39.84C603.923 39.84 603.443 39.9933 603.016 40.3C602.59 40.5933 602.25 41.0133 601.996 41.56L600.216 40C600.616 39.16 601.19 38.5067 601.936 38.04C602.696 37.56 603.583 37.32 604.596 37.32C605.45 37.32 606.203 37.5 606.856 37.86C607.523 38.2067 608.036 38.6867 608.396 39.3C608.77 39.9 608.956 40.5867 608.956 41.36C608.956 42.1067 608.796 42.76 608.476 43.32C608.156 43.88 607.716 44.34 607.156 44.7C606.596 45.06 605.943 45.3133 605.196 45.46L606.136 44.38L605.956 47.12H603.796ZM604.856 52.2C604.39 52.2 603.996 52.04 603.676 51.72C603.37 51.4 603.216 51.0067 603.216 50.54C603.216 50.0733 603.37 49.68 603.676 49.36C603.996 49.04 604.39 48.88 604.856 48.88C605.336 48.88 605.73 49.04 606.036 49.36C606.343 49.68 606.496 50.0733 606.496 50.54C606.496 51.0067 606.343 51.4 606.036 51.72C605.73 52.04 605.336 52.2 604.856 52.2Z" fill="black"/>
<path d="M206.031 160V149.386H220.473C223.141 149.386 225.229 148.603 226.737 147.037C228.245 145.471 228.999 143.557 228.999 141.295C228.999 139.729 228.651 138.337 227.955 137.119C227.259 135.901 226.273 134.944 224.997 134.248C223.779 133.552 222.271 133.204 220.473 133.204H206.031V122.851H219.342C221.604 122.851 223.431 122.3 224.823 121.198C226.215 120.038 226.911 118.298 226.911 115.978C226.911 113.716 226.215 112.034 224.823 110.932C223.431 109.772 221.604 109.192 219.342 109.192H206.031V98.578H221.952C225.896 98.578 229.231 99.303 231.957 100.753C234.741 102.203 236.858 104.146 238.308 106.582C239.758 109.018 240.483 111.715 240.483 114.673C240.483 118.443 239.265 121.633 236.829 124.243C234.393 126.853 230.797 128.651 226.041 129.637L226.389 125.026C231.551 126.012 235.524 128.013 238.308 131.029C241.15 134.045 242.571 137.757 242.571 142.165C242.571 145.529 241.73 148.574 240.048 151.3C238.424 153.968 236.046 156.085 232.914 157.651C229.84 159.217 226.128 160 221.778 160H206.031ZM195.591 160V98.578H209.076V160H195.591ZM270.988 160.957C266.406 160.957 262.317 160.029 258.721 158.173C255.183 156.259 252.399 153.62 250.369 150.256C248.339 146.892 247.324 143.093 247.324 138.859C247.324 134.625 248.31 130.855 250.282 127.549C252.312 124.185 255.038 121.546 258.46 119.632C261.882 117.718 265.739 116.761 270.031 116.761C274.207 116.761 277.89 117.66 281.08 119.458C284.27 121.256 286.764 123.75 288.562 126.94C290.418 130.13 291.346 133.784 291.346 137.902C291.346 138.656 291.288 139.468 291.172 140.338C291.114 141.15 290.969 142.107 290.737 143.209L254.284 143.296V134.161L285.082 134.074L279.34 137.902C279.282 135.466 278.905 133.465 278.209 131.899C277.513 130.275 276.469 129.057 275.077 128.245C273.743 127.375 272.09 126.94 270.118 126.94C268.03 126.94 266.203 127.433 264.637 128.419C263.129 129.347 261.94 130.681 261.07 132.421C260.258 134.161 259.852 136.278 259.852 138.772C259.852 141.266 260.287 143.412 261.157 145.21C262.085 146.95 263.361 148.313 264.985 149.299C266.667 150.227 268.639 150.691 270.901 150.691C272.989 150.691 274.874 150.343 276.556 149.647C278.238 148.893 279.717 147.791 280.993 146.341L288.301 153.649C286.213 156.085 283.69 157.912 280.732 159.13C277.774 160.348 274.526 160.957 270.988 160.957ZM308.481 160L332.841 98.578H345.195L369.294 160H354.852L336.408 109.018H341.367L322.662 160H308.481ZM322.314 148.864V137.728H355.809V148.864H322.314ZM401.017 137.641V127.027H414.241C415.923 127.027 417.46 126.679 418.852 125.983C420.244 125.287 421.346 124.272 422.158 122.938C422.97 121.604 423.376 119.98 423.376 118.066C423.376 116.21 422.97 114.615 422.158 113.281C421.346 111.947 420.244 110.932 418.852 110.236C417.46 109.54 415.923 109.192 414.241 109.192H401.017V98.578H416.242C420.128 98.578 423.637 99.361 426.769 100.927C429.901 102.493 432.366 104.755 434.164 107.713C436.02 110.613 436.948 114.064 436.948 118.066C436.948 122.068 436.02 125.548 434.164 128.506C432.366 131.406 429.901 133.668 426.769 135.292C423.637 136.858 420.128 137.641 416.242 137.641H401.017ZM390.577 160V98.578H404.236V160H390.577ZM459.865 160.87C455.979 160.87 452.499 159.913 449.425 157.999C446.409 156.085 444.002 153.475 442.204 150.169C440.464 146.863 439.594 143.093 439.594 138.859C439.594 134.625 440.464 130.855 442.204 127.549C444.002 124.243 446.409 121.633 449.425 119.719C452.499 117.805 455.979 116.848 459.865 116.848C462.707 116.848 465.259 117.399 467.521 118.501C469.841 119.603 471.726 121.14 473.176 123.112C474.626 125.026 475.438 127.23 475.612 129.724V147.994C475.438 150.488 474.626 152.721 473.176 154.693C471.784 156.607 469.928 158.115 467.608 159.217C465.288 160.319 462.707 160.87 459.865 160.87ZM462.562 148.864C465.404 148.864 467.695 147.936 469.435 146.08C471.175 144.166 472.045 141.759 472.045 138.859C472.045 136.887 471.639 135.147 470.827 133.639C470.073 132.131 468.971 130.971 467.521 130.159C466.129 129.289 464.505 128.854 462.649 128.854C460.793 128.854 459.14 129.289 457.69 130.159C456.298 130.971 455.167 132.131 454.297 133.639C453.485 135.147 453.079 136.887 453.079 138.859C453.079 140.773 453.485 142.484 454.297 143.992C455.109 145.5 456.24 146.689 457.69 147.559C459.14 148.429 460.764 148.864 462.562 148.864ZM471.523 160V148.603L473.524 138.337L471.523 128.071V117.718H484.573V160H471.523ZM493.946 160V117.718H507.257V160H493.946ZM507.257 136.771L501.689 132.421C502.791 127.491 504.647 123.663 507.257 120.937C509.867 118.211 513.492 116.848 518.132 116.848C520.162 116.848 521.931 117.167 523.439 117.805C525.005 118.385 526.368 119.313 527.528 120.589L519.611 130.594C519.031 129.956 518.306 129.463 517.436 129.115C516.566 128.767 515.58 128.593 514.478 128.593C512.274 128.593 510.505 129.289 509.171 130.681C507.895 132.015 507.257 134.045 507.257 136.771ZM537.501 160V100.231H550.812V160H537.501ZM527.931 129.028V117.718H560.382V129.028H527.931ZM613.352 161.044C608.712 161.044 604.42 160.232 600.476 158.608C596.59 156.984 593.168 154.722 590.21 151.822C587.252 148.922 584.961 145.558 583.337 141.73C581.713 137.844 580.901 133.668 580.901 129.202C580.901 124.678 581.713 120.502 583.337 116.674C584.961 112.846 587.223 109.511 590.123 106.669C593.023 103.769 596.416 101.536 600.302 99.97C604.246 98.346 608.538 97.534 613.178 97.534C617.76 97.534 621.994 98.346 625.88 99.97C629.824 101.536 633.246 103.769 636.146 106.669C639.104 109.511 641.395 112.875 643.019 116.761C644.643 120.589 645.455 124.765 645.455 129.289C645.455 133.755 644.643 137.931 643.019 141.817C641.395 145.645 639.133 149.009 636.233 151.909C633.333 154.751 629.911 156.984 625.967 158.608C622.081 160.232 617.876 161.044 613.352 161.044ZM613.178 148.603C616.832 148.603 620.022 147.791 622.748 146.167C625.532 144.543 627.678 142.281 629.186 139.381C630.694 136.423 631.448 133.03 631.448 129.202C631.448 126.302 631.013 123.692 630.143 121.372C629.273 118.994 628.026 116.964 626.402 115.282C624.778 113.542 622.835 112.237 620.573 111.367C618.369 110.439 615.904 109.975 613.178 109.975C609.524 109.975 606.305 110.787 603.521 112.411C600.795 113.977 598.678 116.21 597.17 119.11C595.662 121.952 594.908 125.316 594.908 129.202C594.908 132.102 595.343 134.741 596.213 137.119C597.083 139.497 598.301 141.556 599.867 143.296C601.491 144.978 603.434 146.283 605.696 147.211C607.958 148.139 610.452 148.603 613.178 148.603ZM658.301 160V114.064C658.301 110.642 659.055 107.568 660.563 104.842C662.129 102.058 664.304 99.883 667.088 98.317C669.872 96.693 673.178 95.881 677.006 95.881C679.906 95.881 682.429 96.374 684.575 97.36C686.779 98.288 688.693 99.593 690.317 101.275L681.965 109.627C681.385 109.047 680.718 108.612 679.964 108.322C679.268 107.974 678.427 107.8 677.441 107.8C675.643 107.8 674.222 108.322 673.178 109.366C672.134 110.41 671.612 111.831 671.612 113.629V160H658.301ZM648.992 129.028V117.718H683.792V129.028H648.992ZM722.277 160V99.448H735.936V160H722.277ZM703.05 110.497V98.578H755.163V110.497H703.05ZM789.5 160V135.901C789.5 133.697 788.804 131.928 787.412 130.594C786.078 129.202 784.367 128.506 782.279 128.506C780.829 128.506 779.553 128.825 778.451 129.463C777.349 130.043 776.479 130.913 775.841 132.073C775.203 133.175 774.884 134.451 774.884 135.901L769.751 133.378C769.751 130.072 770.447 127.172 771.839 124.678C773.231 122.184 775.174 120.27 777.668 118.936C780.162 117.544 783.033 116.848 786.281 116.848C789.587 116.848 792.487 117.544 794.981 118.936C797.475 120.27 799.389 122.155 800.723 124.591C802.115 126.969 802.811 129.753 802.811 132.943V160H789.5ZM761.573 160V96.838H774.884V160H761.573ZM832.24 160.957C827.658 160.957 823.569 160.029 819.973 158.173C816.435 156.259 813.651 153.62 811.621 150.256C809.591 146.892 808.576 143.093 808.576 138.859C808.576 134.625 809.562 130.855 811.534 127.549C813.564 124.185 816.29 121.546 819.712 119.632C823.134 117.718 826.991 116.761 831.283 116.761C835.459 116.761 839.142 117.66 842.332 119.458C845.522 121.256 848.016 123.75 849.814 126.94C851.67 130.13 852.598 133.784 852.598 137.902C852.598 138.656 852.54 139.468 852.424 140.338C852.366 141.15 852.221 142.107 851.989 143.209L815.536 143.296V134.161L846.334 134.074L840.592 137.902C840.534 135.466 840.157 133.465 839.461 131.899C838.765 130.275 837.721 129.057 836.329 128.245C834.995 127.375 833.342 126.94 831.37 126.94C829.282 126.94 827.455 127.433 825.889 128.419C824.381 129.347 823.192 130.681 822.322 132.421C821.51 134.161 821.104 136.278 821.104 138.772C821.104 141.266 821.539 143.412 822.409 145.21C823.337 146.95 824.613 148.313 826.237 149.299C827.919 150.227 829.891 150.691 832.153 150.691C834.241 150.691 836.126 150.343 837.808 149.647C839.49 148.893 840.969 147.791 842.245 146.341L849.553 153.649C847.465 156.085 844.942 157.912 841.984 159.13C839.026 160.348 835.778 160.957 832.24 160.957ZM237.562 247V185.578H247.132L251.221 197.845V247H237.562ZM279.931 247L243.739 200.629L247.132 185.578L283.324 231.949L279.931 247ZM279.931 247L276.277 234.733V185.578H289.936V247H279.931ZM321.454 247.957C316.872 247.957 312.783 247.029 309.187 245.173C305.649 243.259 302.865 240.62 300.835 237.256C298.805 233.892 297.79 230.093 297.79 225.859C297.79 221.625 298.776 217.855 300.748 214.549C302.778 211.185 305.504 208.546 308.926 206.632C312.348 204.718 316.205 203.761 320.497 203.761C324.673 203.761 328.356 204.66 331.546 206.458C334.736 208.256 337.23 210.75 339.028 213.94C340.884 217.13 341.812 220.784 341.812 224.902C341.812 225.656 341.754 226.468 341.638 227.338C341.58 228.15 341.435 229.107 341.203 230.209L304.75 230.296V221.161L335.548 221.074L329.806 224.902C329.748 222.466 329.371 220.465 328.675 218.899C327.979 217.275 326.935 216.057 325.543 215.245C324.209 214.375 322.556 213.94 320.584 213.94C318.496 213.94 316.669 214.433 315.103 215.419C313.595 216.347 312.406 217.681 311.536 219.421C310.724 221.161 310.318 223.278 310.318 225.772C310.318 228.266 310.753 230.412 311.623 232.21C312.551 233.95 313.827 235.313 315.451 236.299C317.133 237.227 319.105 237.691 321.367 237.691C323.455 237.691 325.34 237.343 327.022 236.647C328.704 235.893 330.183 234.791 331.459 233.341L338.767 240.649C336.679 243.085 334.156 244.912 331.198 246.13C328.24 247.348 324.992 247.957 321.454 247.957ZM373.32 247L363.141 230.557L360.27 228.73L343.653 204.718H359.226L368.709 220.117L371.493 221.857L388.719 247H373.32ZM342.87 247L360.183 222.379L367.752 230.905L357.399 247H342.87ZM371.406 228.643L363.837 220.117L373.407 204.718H387.849L371.406 228.643ZM398.675 247V187.231H411.986V247H398.675ZM389.105 216.028V204.718H421.556V216.028H389.105ZM455.647 247V236.386H470.089C472.757 236.386 474.845 235.603 476.353 234.037C477.861 232.471 478.615 230.557 478.615 228.295C478.615 226.729 478.267 225.337 477.571 224.119C476.875 222.901 475.889 221.944 474.613 221.248C473.395 220.552 471.887 220.204 470.089 220.204H455.647V209.851H468.958C471.22 209.851 473.047 209.3 474.439 208.198C475.831 207.038 476.527 205.298 476.527 202.978C476.527 200.716 475.831 199.034 474.439 197.932C473.047 196.772 471.22 196.192 468.958 196.192H455.647V185.578H471.568C475.512 185.578 478.847 186.303 481.573 187.753C484.357 189.203 486.474 191.146 487.924 193.582C489.374 196.018 490.099 198.715 490.099 201.673C490.099 205.443 488.881 208.633 486.445 211.243C484.009 213.853 480.413 215.651 475.657 216.637L476.005 212.026C481.167 213.012 485.14 215.013 487.924 218.029C490.766 221.045 492.187 224.757 492.187 229.165C492.187 232.529 491.346 235.574 489.664 238.3C488.04 240.968 485.662 243.085 482.53 244.651C479.456 246.217 475.744 247 471.394 247H455.647ZM445.207 247V185.578H458.692V247H445.207ZM499.723 247V204.718H513.034V247H499.723ZM506.422 198.889C504.334 198.889 502.594 198.193 501.202 196.801C499.868 195.351 499.201 193.611 499.201 191.581C499.201 189.493 499.868 187.753 501.202 186.361C502.594 184.969 504.334 184.273 506.422 184.273C508.51 184.273 510.221 184.969 511.555 186.361C512.889 187.753 513.556 189.493 513.556 191.581C513.556 193.611 512.889 195.351 511.555 196.801C510.221 198.193 508.51 198.889 506.422 198.889ZM540.329 265.966C535.689 265.966 531.6 265.154 528.062 263.53C524.582 261.964 521.827 259.731 519.797 256.831L527.975 248.653C529.483 250.451 531.165 251.814 533.021 252.742C534.935 253.67 537.226 254.134 539.894 254.134C543.2 254.134 545.781 253.322 547.637 251.698C549.551 250.074 550.508 247.783 550.508 244.825V234.037L552.77 224.815L550.769 215.593V204.718H563.819V244.477C563.819 248.827 562.804 252.597 560.774 255.787C558.744 258.977 555.96 261.471 552.422 263.269C548.884 265.067 544.853 265.966 540.329 265.966ZM539.72 245.695C535.834 245.695 532.383 244.767 529.367 242.911C526.351 241.055 523.973 238.532 522.233 235.342C520.493 232.152 519.623 228.614 519.623 224.728C519.623 220.784 520.493 217.246 522.233 214.114C523.973 210.924 526.351 208.43 529.367 206.632C532.383 204.776 535.834 203.848 539.72 203.848C542.62 203.848 545.201 204.399 547.463 205.501C549.783 206.545 551.639 208.053 553.031 210.025C554.481 211.939 555.293 214.172 555.467 216.724V232.819C555.293 235.313 554.481 237.546 553.031 239.518C551.639 241.432 549.783 242.94 547.463 244.042C545.143 245.144 542.562 245.695 539.72 245.695ZM542.243 233.863C544.099 233.863 545.694 233.457 547.028 232.645C548.42 231.833 549.464 230.76 550.16 229.426C550.914 228.034 551.291 226.468 551.291 224.728C551.291 222.988 550.914 221.422 550.16 220.03C549.464 218.638 548.42 217.536 547.028 216.724C545.694 215.912 544.099 215.506 542.243 215.506C540.445 215.506 538.85 215.912 537.458 216.724C536.066 217.536 534.993 218.638 534.239 220.03C533.485 221.422 533.108 222.988 533.108 224.728C533.108 226.352 533.485 227.889 534.239 229.339C534.993 230.731 536.037 231.833 537.371 232.645C538.763 233.457 540.387 233.863 542.243 233.863ZM604.691 247V186.448H618.35V247H604.691ZM585.464 197.497V185.578H637.577V197.497H585.464ZM671.914 247V222.901C671.914 220.697 671.218 218.928 669.826 217.594C668.492 216.202 666.781 215.506 664.693 215.506C663.243 215.506 661.967 215.825 660.865 216.463C659.763 217.043 658.893 217.913 658.255 219.073C657.617 220.175 657.298 221.451 657.298 222.901L652.165 220.378C652.165 217.072 652.861 214.172 654.253 211.678C655.645 209.184 657.588 207.27 660.082 205.936C662.576 204.544 665.447 203.848 668.695 203.848C672.001 203.848 674.901 204.544 677.395 205.936C679.889 207.27 681.803 209.155 683.137 211.591C684.529 213.969 685.225 216.753 685.225 219.943V247H671.914ZM643.987 247V183.838H657.298V247H643.987ZM693.774 247V204.718H707.085V247H693.774ZM700.473 198.889C698.385 198.889 696.645 198.193 695.253 196.801C693.919 195.351 693.252 193.611 693.252 191.581C693.252 189.493 693.919 187.753 695.253 186.361C696.645 184.969 698.385 184.273 700.473 184.273C702.561 184.273 704.272 184.969 705.606 186.361C706.94 187.753 707.607 189.493 707.607 191.581C707.607 193.611 706.94 195.351 705.606 196.801C704.272 198.193 702.561 198.889 700.473 198.889ZM744.385 247V222.901C744.385 220.697 743.689 218.928 742.297 217.594C740.963 216.202 739.252 215.506 737.164 215.506C735.714 215.506 734.438 215.825 733.336 216.463C732.234 217.043 731.364 217.913 730.726 219.073C730.088 220.175 729.769 221.451 729.769 222.901L724.636 220.378C724.636 217.072 725.361 214.172 726.811 211.678C728.261 209.184 730.262 207.27 732.814 205.936C735.424 204.544 738.353 203.848 741.601 203.848C744.733 203.848 747.488 204.602 749.866 206.11C752.302 207.56 754.216 209.503 755.608 211.939C757 214.375 757.696 217.043 757.696 219.943V247H744.385ZM716.458 247V204.718H729.769V247H716.458ZM784.167 265.966C779.527 265.966 775.438 265.154 771.9 263.53C768.42 261.964 765.665 259.731 763.635 256.831L771.813 248.653C773.321 250.451 775.003 251.814 776.859 252.742C778.773 253.67 781.064 254.134 783.732 254.134C787.038 254.134 789.619 253.322 791.475 251.698C793.389 250.074 794.346 247.783 794.346 244.825V234.037L796.608 224.815L794.607 215.593V204.718H807.657V244.477C807.657 248.827 806.642 252.597 804.612 255.787C802.582 258.977 799.798 261.471 796.26 263.269C792.722 265.067 788.691 265.966 784.167 265.966ZM783.558 245.695C779.672 245.695 776.221 244.767 773.205 242.911C770.189 241.055 767.811 238.532 766.071 235.342C764.331 232.152 763.461 228.614 763.461 224.728C763.461 220.784 764.331 217.246 766.071 214.114C767.811 210.924 770.189 208.43 773.205 206.632C776.221 204.776 779.672 203.848 783.558 203.848C786.458 203.848 789.039 204.399 791.301 205.501C793.621 206.545 795.477 208.053 796.869 210.025C798.319 211.939 799.131 214.172 799.305 216.724V232.819C799.131 235.313 798.319 237.546 796.869 239.518C795.477 241.432 793.621 242.94 791.301 244.042C788.981 245.144 786.4 245.695 783.558 245.695ZM786.081 233.863C787.937 233.863 789.532 233.457 790.866 232.645C792.258 231.833 793.302 230.76 793.998 229.426C794.752 228.034 795.129 226.468 795.129 224.728C795.129 222.988 794.752 221.422 793.998 220.03C793.302 218.638 792.258 217.536 790.866 216.724C789.532 215.912 787.937 215.506 786.081 215.506C784.283 215.506 782.688 215.912 781.296 216.724C779.904 217.536 778.831 218.638 778.077 220.03C777.323 221.422 776.946 222.988 776.946 224.728C776.946 226.352 777.323 227.889 778.077 229.339C778.831 230.731 779.875 231.833 781.209 232.645C782.601 233.457 784.225 233.863 786.081 233.863Z" fill="white"/>
<rect x="364" y="286" width="297" height="48" rx="24" fill="black"/>
<path d="M444.94 317.2C443.94 317.2 443 317.02 442.12 316.66C441.253 316.287 440.487 315.767 439.82 315.1C439.167 314.433 438.653 313.667 438.28 312.8C437.92 311.92 437.74 310.973 437.74 309.96C437.74 308.933 437.927 307.987 438.3 307.12C438.673 306.24 439.193 305.473 439.86 304.82C440.527 304.153 441.307 303.64 442.2 303.28C443.093 302.907 444.06 302.72 445.1 302.72C446.26 302.72 447.327 302.94 448.3 303.38C449.273 303.807 450.08 304.413 450.72 305.2L448.88 307.04C448.44 306.467 447.893 306.027 447.24 305.72C446.587 305.413 445.867 305.26 445.08 305.26C444.187 305.26 443.393 305.46 442.7 305.86C442.02 306.247 441.487 306.793 441.1 307.5C440.713 308.193 440.52 309.007 440.52 309.94C440.52 310.873 440.707 311.7 441.08 312.42C441.467 313.127 441.987 313.68 442.64 314.08C443.307 314.48 444.067 314.68 444.92 314.68C445.8 314.68 446.553 314.52 447.18 314.2C447.807 313.867 448.287 313.387 448.62 312.76C448.953 312.12 449.12 311.34 449.12 310.42L450.9 311.64L444.76 311.58V309.22H451.92V309.6C451.92 311.28 451.62 312.687 451.02 313.82C450.42 314.94 449.593 315.787 448.54 316.36C447.5 316.92 446.3 317.2 444.94 317.2ZM456.006 317V302.94H458.726V317H456.006ZM458.006 317V314.6H465.786V317H458.006ZM458.006 310.98V308.66H465.086V310.98H458.006ZM458.006 305.34V302.94H465.686V305.34H458.006ZM473.068 317V303.24H475.808V317H473.068ZM468.588 305.36V302.94H480.288V305.36H468.588ZM493.84 317.2C492.707 317.2 491.734 317.007 490.92 316.62C490.12 316.233 489.394 315.653 488.74 314.88L490.54 313.08C490.954 313.627 491.434 314.053 491.98 314.36C492.527 314.653 493.194 314.8 493.98 314.8C494.687 314.8 495.247 314.66 495.66 314.38C496.087 314.1 496.3 313.713 496.3 313.22C496.3 312.793 496.18 312.447 495.94 312.18C495.7 311.913 495.38 311.687 494.98 311.5C494.594 311.313 494.16 311.147 493.68 311C493.214 310.84 492.74 310.66 492.26 310.46C491.794 310.26 491.36 310.013 490.96 309.72C490.574 309.413 490.26 309.027 490.02 308.56C489.78 308.08 489.66 307.48 489.66 306.76C489.66 305.907 489.867 305.18 490.28 304.58C490.694 303.98 491.26 303.52 491.98 303.2C492.7 302.88 493.514 302.72 494.42 302.72C495.38 302.72 496.247 302.9 497.02 303.26C497.794 303.62 498.427 304.087 498.92 304.66L497.12 306.46C496.707 306.007 496.28 305.673 495.84 305.46C495.414 305.247 494.927 305.14 494.38 305.14C493.754 305.14 493.26 305.26 492.9 305.5C492.54 305.74 492.36 306.087 492.36 306.54C492.36 306.927 492.48 307.24 492.72 307.48C492.96 307.72 493.274 307.927 493.66 308.1C494.06 308.273 494.494 308.44 494.96 308.6C495.44 308.76 495.914 308.94 496.38 309.14C496.86 309.34 497.294 309.6 497.68 309.92C498.08 310.24 498.4 310.653 498.64 311.16C498.88 311.653 499 312.267 499 313C499 314.307 498.54 315.333 497.62 316.08C496.7 316.827 495.44 317.2 493.84 317.2ZM506.061 317V303.24H508.801V317H506.061ZM501.581 305.36V302.94H513.281V305.36H501.581ZM514.283 317L519.943 302.94H522.163L527.803 317H524.903L520.543 305.46H521.543L517.123 317H514.283ZM517.283 314.38V312.1H524.843V314.38H517.283ZM533.463 311.12V309H536.723C537.39 309 537.903 308.833 538.263 308.5C538.637 308.153 538.823 307.68 538.823 307.08C538.823 306.533 538.637 306.08 538.263 305.72C537.903 305.347 537.39 305.16 536.723 305.16H533.463V302.94H536.963C537.87 302.94 538.663 303.12 539.343 303.48C540.037 303.827 540.57 304.307 540.943 304.92C541.33 305.533 541.523 306.24 541.523 307.04C541.523 307.867 541.33 308.587 540.943 309.2C540.57 309.8 540.037 310.273 539.343 310.62C538.65 310.953 537.843 311.12 536.923 311.12H533.463ZM531.463 317V302.94H534.183V317H531.463ZM539.143 317L534.503 310.92L537.003 310.14L542.443 317H539.143ZM548.877 317V303.24H551.617V317H548.877ZM544.397 305.36V302.94H556.097V305.36H544.397ZM559.975 317V302.94H562.695V317H559.975ZM561.975 317V314.6H569.755V317H561.975ZM561.975 310.98V308.66H569.055V310.98H561.975ZM561.975 305.34V302.94H569.655V305.34H561.975ZM575.866 317V314.58H579.446C580.353 314.58 581.146 314.393 581.826 314.02C582.506 313.633 583.033 313.093 583.406 312.4C583.793 311.707 583.986 310.887 583.986 309.94C583.986 309.02 583.793 308.22 583.406 307.54C583.02 306.847 582.486 306.313 581.806 305.94C581.126 305.553 580.34 305.36 579.446 305.36H575.806V302.94H579.486C580.526 302.94 581.486 303.113 582.366 303.46C583.26 303.807 584.033 304.3 584.686 304.94C585.353 305.567 585.866 306.307 586.226 307.16C586.6 308.013 586.786 308.947 586.786 309.96C586.786 310.973 586.6 311.913 586.226 312.78C585.866 313.633 585.36 314.38 584.706 315.02C584.053 315.647 583.28 316.133 582.386 316.48C581.506 316.827 580.553 317 579.526 317H575.866ZM574.006 317V302.94H576.726V317H574.006Z" fill="white"/>
<defs>
<linearGradient id="paint0_linear_220_2" x1="-174.5" y1="-21.2732" x2="997.07" y2="797.612" gradientUnits="userSpaceOnUse">
<stop offset="0.12874" stop-color="#3836A9" stop-opacity="0.9"/>
<stop offset="1" stop-color="#97D0CC"/>
</linearGradient>
</defs>
</svg>
